<svg id="Layer_1" data-name="Layer 1" xmlns="http://www.w3.org/2000/svg" xmlns:xlink="http://www.w3.org/1999/xlink" viewBox="0 0 32 32"><defs><style>.cls-1{fill:#fff;}.cls-2{fill:url(#linear-gradient);}</style><linearGradient id="linear-gradient" x1="3.98" y1="15.99" x2="26.87" y2="15.99" gradientUnits="userSpaceOnUse"><stop offset="0" stop-color="#4f56de"/><stop offset="1" stop-color="#8059e1"/></linearGradient></defs><title>site-icon</title><rect class="cls-1" width="32" height="32"/><path class="cls-2" d="M26.87,20.72a6.74,6.74,0,0,1-.61,2.65,9.46,9.46,0,0,1-1.9,2.8,9.55,9.55,0,0,1-3.3,2.23,12,12,0,0,1-4.7.86,16.81,16.81,0,0,1-3.69-.38,10.48,10.48,0,0,1-3-1.2,10.25,10.25,0,0,1-2.5-2.15,13.11,13.11,0,0,1-1.73-2.7,14.18,14.18,0,0,1-1.08-3.2A17.33,17.33,0,0,1,4,16a15.84,15.84,0,0,1,.91-5.55A11.83,11.83,0,0,1,7.47,6.28a11.28,11.28,0,0,1,3.94-2.65,12.67,12.67,0,0,1,4.81-.91A12,12,0,0,1,21.77,4,10,10,0,0,1,25.5,7a6.05,6.05,0,0,1,1.3,3.46,2.26,2.26,0,0,1-.63,1.58,2,2,0,0,1-1.53.68,2.11,2.11,0,0,1-1.49-.47A6.25,6.25,0,0,1,22,10.65,7.92,7.92,0,0,0,19.65,7.8a5.86,5.86,0,0,0-3.39-1,6.15,6.15,0,0,0-5.11,2.43,11.09,11.09,0,0,0-1.9,6.92,12.81,12.81,0,0,0,.84,5,6.25,6.25,0,0,0,2.39,3,6.56,6.56,0,0,0,3.6,1A6.32,6.32,0,0,0,19.87,24a6.63,6.63,0,0,0,2.34-3.27A5.64,5.64,0,0,1,23,19.1a1.87,1.87,0,0,1,1.58-.64,2.16,2.16,0,0,1,1.59.65A2.14,2.14,0,0,1,26.87,20.72Z"/></svg>