<?xml version="1.0" encoding="UTF-8" standalone="no"?>
<!DOCTYPE svg PUBLIC "-//W3C//DTD SVG 1.1//EN" "http://www.w3.org/Graphics/SVG/1.1/DTD/svg11.dtd">
<svg xmlns="http://www.w3.org/2000/svg" version="1.1" viewBox="0.00 0.00 164.00 168.00">
<path fill="#fcdcae" d="
  M 52.37 58.23
  Q 51.52 59.31 51.14 60.69
  Q 47.90 72.22 44.67 81.44
  C 42.81 86.74 38.21 87.68 33.23 88.11
  C 29.72 88.41 26.45 87.79 22.98 87.82
  C 20.00 87.85 17.24 86.27 15.80 83.75
  A 2.09 2.09 0.0 0 1 16.02 81.38
  C 18.06 78.97 21.00 77.79 24.19 78.11
  C 30.02 78.70 35.90 77.60 37.82 71.49
  Q 44.08 51.57 50.11 30.06
  Q 50.78 27.68 52.15 25.73
  A 1.33 1.33 0.0 0 1 54.32 25.73
  Q 55.79 27.80 56.50 30.17
  Q 67.63 67.48 78.92 105.02
  Q 79.54 107.09 80.60 109.03
  A 1.50 1.49 -42.0 0 0 83.14 109.16
  Q 84.18 107.65 84.75 106.00
  Q 94.48 77.80 102.92 53.16
  Q 103.58 51.23 104.89 49.68
  A 1.53 1.52 -46.7 0 1 107.16 49.61
  Q 108.62 51.14 109.44 53.14
  Q 113.87 63.87 118.08 74.03
  C 120.13 78.98 128.49 78.81 132.86 78.28
  C 135.60 77.95 138.77 79.52 139.65 82.15
  Q 140.84 85.73 136.72 86.46
  C 126.21 88.33 110.22 89.92 108.99 74.86
  A 1.11 1.11 0.0 0 0 108.06 73.85
  Q 107.30 73.72 106.80 74.41
  Q 104.14 78.05 102.74 82.04
  Q 92.60 110.86 83.37 138.21
  A 1.10 1.09 -0.7 0 1 82.72 138.87
  Q 80.20 139.77 79.34 137.02
  Q 68.40 101.59 56.18 62.16
  Q 55.56 60.15 54.42 58.34
  A 1.25 1.25 0.0 0 0 52.37 58.23
  Z"
/>
</svg>
