<?xml version="1.0" encoding="UTF-8" standalone="no"?>
<!DOCTYPE svg PUBLIC "-//W3C//DTD SVG 1.1//EN" "http://www.w3.org/Graphics/SVG/1.1/DTD/svg11.dtd">
<svg xmlns="http://www.w3.org/2000/svg" version="1.1" viewBox="0.00 0.00 264.00 308.00">
<path fill="#bef8ac" d="
  M 106.96 113.34
  C 122.65 79.40 171.77 80.33 184.76 116.01
  C 188.63 126.63 189.36 139.21 186.11 150.15
  C 183.28 159.68 177.61 169.18 171.99 177.73
  Q 168.65 182.82 167.14 187.51
  C 165.04 194.08 164.54 201.64 164.83 208.72
  C 165.10 215.40 162.59 220.97 155.54 221.16
  Q 147.42 221.38 136.94 221.20
  Q 125.98 221.01 125.50 210.04
  Q 125.22 203.66 125.17 195.57
  C 125.13 190.00 123.00 184.91 120.09 180.05
  C 115.73 172.75 110.96 165.25 107.16 157.81
  Q 96.27 136.48 106.96 113.34
  Z
  M 172.99 156.91
  C 177.71 149.46 180.59 141.13 179.43 132.21
  C 177.69 118.94 170.35 105.84 157.75 100.52
  C 143.21 94.39 127.43 99.96 118.87 112.98
  C 111.95 123.51 109.46 136.97 113.74 148.82
  Q 115.94 154.90 119.69 160.50
  Q 127.35 171.93 135.10 185.85
  Q 136.27 187.95 138.52 187.97
  Q 145.32 188.03 153.10 187.94
  A 2.96 2.96 0.0 0 0 155.67 186.39
  Q 163.58 171.80 172.99 156.91
  Z
  M 157.0322 203.1874
  A 5.95 5.95 0.0 0 0 151.3042 197.0234
  L 139.9518 196.6071
  A 5.95 5.95 0.0 0 0 133.7878 202.3351
  L 133.6478 206.1526
  A 5.95 5.95 0.0 0 0 139.3758 212.3166
  L 150.7282 212.7329
  A 5.95 5.95 0.0 0 0 156.8922 207.0049
  L 157.0322 203.1874
  Z"
/>
</svg>
