<svg id="Layer_1" data-name="Layer 1" xmlns="http://www.w3.org/2000/svg" xmlns:xlink="http://www.w3.org/1999/xlink" viewBox="0 0 29.92 8.84"><defs><style>.cls-1{fill:url(#linear-gradient);}.cls-2{fill:#8159e1;}</style><linearGradient id="linear-gradient" x1="0.08" y1="6.15" x2="27.19" y2="6.15" gradientUnits="userSpaceOnUse"><stop offset="0" stop-color="#4d56de"/><stop offset="1" stop-color="#8159e1"/></linearGradient></defs><title>logo</title><path class="cls-1" d="M4.72,7.11a1.47,1.47,0,0,1-.12.54,1.92,1.92,0,0,1-.38.56,2,2,0,0,1-.68.46,2.52,2.52,0,0,1-1,.17,3,3,0,0,1-.75-.08,2,2,0,0,1-.61-.24,2.1,2.1,0,0,1-.51-.44,2.5,2.5,0,0,1-.35-.54,2.93,2.93,0,0,1-.22-.65,3.51,3.51,0,0,1-.07-.74A3.25,3.25,0,0,1,.26,5a2.31,2.31,0,0,1,.53-.85,2.1,2.1,0,0,1,.8-.54,2.43,2.43,0,0,1,1-.19,2.41,2.41,0,0,1,1.13.26,2,2,0,0,1,.76.62,1.27,1.27,0,0,1,.26.7.44.44,0,0,1-.13.32.41.41,0,0,1-.31.14.4.4,0,0,1-.3-.1,1.29,1.29,0,0,1-.23-.33,1.66,1.66,0,0,0-.48-.58,1.27,1.27,0,0,0-.69-.19,1.27,1.27,0,0,0-1,.5,2.26,2.26,0,0,0-.38,1.4,2.66,2.66,0,0,0,.17,1,1.22,1.22,0,0,0,.48.6,1.3,1.3,0,0,0,.74.2,1.26,1.26,0,0,0,.76-.22,1.37,1.37,0,0,0,.48-.67A1,1,0,0,1,4,6.78a.36.36,0,0,1,.32-.13.44.44,0,0,1,.32.13A.44.44,0,0,1,4.72,7.11Z" transform="translate(-0.08 0)"/><path class="cls-1" d="M6.74,4.09v1.5H9V4.09a.69.69,0,0,1,.14-.48.5.5,0,0,1,.38-.16.51.51,0,0,1,.38.16.69.69,0,0,1,.15.48V8.2a.67.67,0,0,1-.15.48.49.49,0,0,1-.38.16.46.46,0,0,1-.38-.16A.69.69,0,0,1,9,8.2V6.45H6.74V8.2a.67.67,0,0,1-.15.48.5.5,0,0,1-.39.16.48.48,0,0,1-.38-.16.74.74,0,0,1-.14-.48V4.09a.74.74,0,0,1,.14-.48.51.51,0,0,1,.38-.16.53.53,0,0,1,.39.16A.69.69,0,0,1,6.74,4.09Z" transform="translate(-0.08 0)"/><path class="cls-1" d="M14.64,4.36H12.26V5.64h2.19a.53.53,0,0,1,.36.1.38.38,0,0,1,.12.29.37.37,0,0,1-.12.29.53.53,0,0,1-.36.11H12.26V7.91h2.46A.54.54,0,0,1,15.1,8a.41.41,0,0,1,.12.31.41.41,0,0,1-.12.3.59.59,0,0,1-.38.11H11.85a.67.67,0,0,1-.49-.15.68.68,0,0,1-.15-.49V4.19a1,1,0,0,1,.06-.37.43.43,0,0,1,.21-.21.82.82,0,0,1,.37-.07h2.79a.54.54,0,0,1,.37.11.38.38,0,0,1,.13.3.35.35,0,0,1-.13.29A.5.5,0,0,1,14.64,4.36Z" transform="translate(-0.08 0)"/><path class="cls-1" d="M17.48,6.52h-.37V8.2a.7.7,0,0,1-.15.49.49.49,0,0,1-.38.15.47.47,0,0,1-.39-.16.74.74,0,0,1-.14-.48v-4a.67.67,0,0,1,.16-.5.67.67,0,0,1,.49-.15h1.72a5.4,5.4,0,0,1,.61,0,1.57,1.57,0,0,1,.45.12,1.28,1.28,0,0,1,.43.3,1.4,1.4,0,0,1,.39,1,1.33,1.33,0,0,1-.33.94,1.92,1.92,0,0,1-1,.49,2,2,0,0,1,.54.44,4.44,4.44,0,0,1,.45.62,5.17,5.17,0,0,1,.32.59,1.31,1.31,0,0,1,.11.37.31.31,0,0,1-.07.2.4.4,0,0,1-.18.16.53.53,0,0,1-.26.06.56.56,0,0,1-.3-.08.8.8,0,0,1-.2-.21c-.06-.09-.14-.21-.24-.38l-.43-.7a3.47,3.47,0,0,0-.4-.59A1,1,0,0,0,18,6.6,1.28,1.28,0,0,0,17.48,6.52Zm.6-2.19h-1V5.77h.94a2.44,2.44,0,0,0,.65-.07.74.74,0,0,0,.39-.22A.66.66,0,0,0,19.23,5a.7.7,0,0,0-.11-.38.76.76,0,0,0-.31-.25A2.21,2.21,0,0,0,18.08,4.33Z" transform="translate(-0.08 0)"/><path class="cls-1" d="M21.34,8.2V4.09a.74.74,0,0,1,.14-.48.53.53,0,0,1,.38-.16.53.53,0,0,1,.39.16.69.69,0,0,1,.14.48V8.2a.67.67,0,0,1-.14.48.5.5,0,0,1-.39.16.46.46,0,0,1-.37-.16A.69.69,0,0,1,21.34,8.2Z" transform="translate(-0.08 0)"/><path class="cls-1" d="M26.69,4.36H24.61V5.69h1.74a.49.49,0,0,1,.36.11.37.37,0,0,1,.12.29.38.38,0,0,1-.12.29.53.53,0,0,1-.36.1H24.61V8.2a.66.66,0,0,1-.15.48.48.48,0,0,1-.38.16.49.49,0,0,1-.38-.16.67.67,0,0,1-.15-.48v-4a.94.94,0,0,1,.07-.37.43.43,0,0,1,.21-.21.82.82,0,0,1,.37-.07h2.49a.54.54,0,0,1,.37.11.38.38,0,0,1,.13.3.35.35,0,0,1-.13.29A.5.5,0,0,1,26.69,4.36Z" transform="translate(-0.08 0)"/><circle class="cls-2" cx="29.17" cy="0.75" r="0.75"/></svg>